<svg id="Layer_1" data-name="Layer 1" xmlns="http://www.w3.org/2000/svg" viewBox="0 0 492.26 393.76"><defs><style>.cls-1{fill:#231f20;stroke:#231f20;stroke-miterlimit:10;}</style></defs><path class="cls-1" d="M480.9,232.2,477,227.32l-4.1-5.17-19.94-25-2.28-2.86-8.74-11-13.67-17.16-3-3.77-18.7-23.48,0,0v-.07l-9.23-11.58-13.13-16.54L371.77,95.13l-1.45-1.82-8.72-11L342.39,58.22l-3.18-4-2.5,3.13-.7.87L316.7,82.29l-8.81,11-5.13,6.39L295,109.43l-14.28,17.83-8.23,10.27-4.76,5.92-15.13,18.89h-4.81L232.32,143l-4.39-5.54-8.11-10.17-14.3-18-8.28-10.4-4.45-5.58-9-11.24-19-23.85-2.43-3-1-1.27L158,58.22,138.94,82l-9.06,11.32-2.53,3.16-11.09,13.81-13.6,17-8.89,11.09-.36.46L74.54,162.34,72,165.52l-13.65,17-8.83,11-2.85,3.52L27.19,221.42,23,226.69l-4.42,5.51-14,17.53,14.21,17.85L23,272.92l3.93,4.93,19.74,24.79,1.94,2.46,9.76,12.26L71,333.24l2.68,3.35,19.54,24.55.2-.27v.51l8.18,10.3,14,17.6L127.35,404l2,2.45,8.91,11.17,19.23,24.19,3.15,3.95,1.85-2.3,1.34-1.65,19.52-24.36,8.81-11,5.13-6.41V268.31l-.59-.73h.59V232.2h-.68l.68-.85V155.23l5.65,7.11,2.53,3.16,22.22,27.92,2.93,3.69,1.75,2.19,17.73,22.27,17.63-22,2-2.43,2.89-3.61,22.32-27.83,2.65-3.33,5.26-6.55v75.66l.61.75h-.61v35.38h.66l-.66.83V400.86l4.47,5.61,8.94,11.22,19.2,24.14,1.34,1.67,2,2.58,3.4-4.25L361.23,418l9.26-11.54,1.28-1.6,12.14-15.15,14.45-18,8-10,.17-.2,19.91-24.86,2.23-2.77L442,317.31l9.27-11.58,2.48-3.09L473,278.58l4-5,4.78-6,13.7-17.07ZM162.44,336.59v54.68l-1.55-1.94-14.06-17.65L138.3,361l-11-13.77-8.45-10.61-3-3.76-22.22-27.9-.26.34v-.71l-1.53-1.92L71.29,276.78,64,267.58l-5.61-7v-21.9l5.15-6.44,8.4-10.49,19.74-24.6,1.78-2.23,1-1.24,21.76-27.15,3.33-4.15,7.86-9.81,11.32-14.1,9-11.17,13.72-17.12,1.09-1.39v53.59H163l-.56.71V335.42l.92,1.17ZM442,260.76l-5.47,6.82-7.84,9.79-20.27,25.27-1.8,2.26-.44.54-22.31,27.82-2.65,3.33-9.4,11.73-10.44,13-8.28,10.35-14.4,17.94-1.94-2.43v-50.6h-.12l.12-.17v-229l2.4,3,13.38,16.83,9.21,11.55,10.07,12.65,8.67,10.88,3.67,4.59v0l21.68,27.22.78-1v2l1.55,1.94,20.06,25.21,7.87,9.88,5.9,7.41Z" transform="translate(-3.87 -53.12)"/></svg>